<?xml version="1.0" encoding="UTF-8" standalone="no"?>
<!DOCTYPE svg PUBLIC "-//W3C//DTD SVG 1.1//EN" "http://www.w3.org/Graphics/SVG/1.1/DTD/svg11.dtd">
<svg width="100%" height="100%" viewBox="0 0 759 343" version="1.1" xmlns="http://www.w3.org/2000/svg" xmlns:xlink="http://www.w3.org/1999/xlink" xml:space="preserve" xmlns:serif="http://www.serif.com/" style="fill-rule:evenodd;clip-rule:evenodd;stroke-linejoin:round;stroke-miterlimit:2;">
    <g transform="matrix(1,0,0,1,0,-28.22)">
        <rect x="0" y="28.22" width="451.86" height="46.52" style="fill:rgb(12,107,176);"/>
    </g>
    <g transform="matrix(1,0,0,1,0,-28.22)">
        <rect x="219.38" y="187.72" width="232.48" height="36.55" style="fill:rgb(12,107,176);"/>
    </g>
    <g transform="matrix(-3.82857e-16,-1,1,-3.82857e-16,13.49,383.96)">
        <rect x="41.7" y="176.43" width="342.26" height="45.84" style="fill:rgb(28,42,83);"/>
    </g>
    <g transform="matrix(1,0,0,1,0,-28.22)">
        <rect x="212.83" y="28.22" width="239.03" height="46.52" style="fill:rgb(28,42,83);"/>
    </g>
    <g transform="matrix(1,0,0,1,0,-28.22)">
        <rect x="235.75" y="333.92" width="216.11" height="36.55" style="fill:rgb(12,107,176);"/>
    </g>
    <g transform="matrix(1.1,0,0,1,283.3,276.56)">
        <g transform="matrix(59.81,0,0,59.81,0,0)">
            <path d="M0.085,-0.717L0.608,-0.717L0.608,-0.629L0.18,-0.629L0.18,-0.412L0.576,-0.412L0.576,-0.329L0.18,-0.329L0.18,-0.085L0.616,-0.085L0.616,-0L0.085,-0L0.085,-0.717Z" style="fill:rgb(43,47,137);fill-rule:nonzero;"/>
        </g>
        <g transform="matrix(59.81,0,0,59.81,39.8928,0)">
            <path d="M0.076,-0.717L0.191,-0.717L0.553,-0.136L0.553,-0.717L0.646,-0.717L0.646,-0L0.537,-0L0.169,-0.581L0.169,-0L0.076,-0L0.076,-0.717Z" style="fill:rgb(43,47,137);fill-rule:nonzero;"/>
        </g>
        <g transform="matrix(59.81,0,0,59.81,83.0857,0)">
            <path d="M0.386,-0.736C0.454,-0.736 0.512,-0.723 0.561,-0.697C0.632,-0.659 0.676,-0.594 0.692,-0.5L0.596,-0.5C0.584,-0.552 0.56,-0.591 0.523,-0.615C0.486,-0.638 0.44,-0.65 0.384,-0.65C0.317,-0.65 0.261,-0.625 0.216,-0.576C0.171,-0.526 0.148,-0.452 0.148,-0.353C0.148,-0.268 0.167,-0.198 0.204,-0.145C0.242,-0.091 0.303,-0.064 0.387,-0.064C0.452,-0.064 0.506,-0.083 0.548,-0.121C0.591,-0.158 0.612,-0.219 0.613,-0.303L0.389,-0.303L0.389,-0.384L0.704,-0.384L0.704,-0L0.641,-0L0.618,-0.092C0.585,-0.056 0.556,-0.031 0.53,-0.017C0.488,0.007 0.433,0.019 0.368,0.019C0.283,0.019 0.21,-0.008 0.148,-0.063C0.082,-0.132 0.048,-0.227 0.048,-0.348C0.048,-0.468 0.081,-0.563 0.146,-0.634C0.208,-0.702 0.288,-0.736 0.386,-0.736Z" style="fill:rgb(43,47,137);fill-rule:nonzero;"/>
        </g>
        <g transform="matrix(59.81,0,0,59.81,129.608,0)">
            <rect x="0.098" y="-0.717" width="0.098" height="0.717" style="fill:rgb(43,47,137);fill-rule:nonzero;"/>
        </g>
        <g transform="matrix(59.81,0,0,59.81,146.225,0)">
            <path d="M0.076,-0.717L0.191,-0.717L0.553,-0.136L0.553,-0.717L0.646,-0.717L0.646,-0L0.537,-0L0.169,-0.581L0.169,-0L0.076,-0L0.076,-0.717Z" style="fill:rgb(43,47,137);fill-rule:nonzero;"/>
        </g>
        <g transform="matrix(59.81,0,0,59.81,189.418,0)">
            <rect x="0.098" y="-0.717" width="0.098" height="0.717" style="fill:rgb(43,47,137);fill-rule:nonzero;"/>
        </g>
        <g transform="matrix(59.81,0,0,59.81,206.035,0)">
            <path d="M0.085,-0.717L0.608,-0.717L0.608,-0.629L0.18,-0.629L0.18,-0.412L0.576,-0.412L0.576,-0.329L0.18,-0.329L0.18,-0.085L0.616,-0.085L0.616,-0L0.085,-0L0.085,-0.717Z" style="fill:rgb(43,47,137);fill-rule:nonzero;"/>
        </g>
        <g transform="matrix(59.81,0,0,59.81,245.928,0)">
            <path d="M0.085,-0.717L0.608,-0.717L0.608,-0.629L0.18,-0.629L0.18,-0.412L0.576,-0.412L0.576,-0.329L0.18,-0.329L0.18,-0.085L0.616,-0.085L0.616,-0L0.085,-0L0.085,-0.717Z" style="fill:rgb(43,47,137);fill-rule:nonzero;"/>
        </g>
        <g transform="matrix(59.81,0,0,59.81,285.821,0)">
            <path d="M0.41,-0.389C0.455,-0.389 0.491,-0.398 0.518,-0.416C0.544,-0.434 0.558,-0.467 0.558,-0.515C0.558,-0.566 0.539,-0.601 0.502,-0.619C0.482,-0.629 0.456,-0.634 0.422,-0.634L0.185,-0.634L0.185,-0.389L0.41,-0.389ZM0.088,-0.717L0.42,-0.717C0.475,-0.717 0.52,-0.709 0.555,-0.693C0.623,-0.663 0.656,-0.606 0.656,-0.524C0.656,-0.481 0.647,-0.446 0.63,-0.418C0.612,-0.391 0.587,-0.369 0.555,-0.353C0.583,-0.341 0.604,-0.326 0.618,-0.308C0.633,-0.289 0.64,-0.259 0.642,-0.217L0.646,-0.121C0.646,-0.094 0.649,-0.073 0.652,-0.06C0.658,-0.037 0.669,-0.023 0.684,-0.016L0.684,-0L0.564,-0C0.561,-0.006 0.559,-0.014 0.557,-0.024C0.555,-0.034 0.553,-0.053 0.552,-0.081L0.546,-0.2C0.544,-0.247 0.526,-0.278 0.494,-0.294C0.475,-0.303 0.446,-0.308 0.406,-0.308L0.185,-0.308L0.185,-0L0.088,-0L0.088,-0.717Z" style="fill:rgb(43,47,137);fill-rule:nonzero;"/>
        </g>
        <g transform="matrix(59.81,0,0,59.81,329.013,0)">
            <rect x="0.098" y="-0.717" width="0.098" height="0.717" style="fill:rgb(43,47,137);fill-rule:nonzero;"/>
        </g>
        <g transform="matrix(59.81,0,0,59.81,345.631,0)">
            <path d="M0.076,-0.717L0.191,-0.717L0.553,-0.136L0.553,-0.717L0.646,-0.717L0.646,-0L0.537,-0L0.169,-0.581L0.169,-0L0.076,-0L0.076,-0.717Z" style="fill:rgb(43,47,137);fill-rule:nonzero;"/>
        </g>
        <g transform="matrix(59.81,0,0,59.81,388.823,0)">
            <path d="M0.386,-0.736C0.454,-0.736 0.512,-0.723 0.561,-0.697C0.632,-0.659 0.676,-0.594 0.692,-0.5L0.596,-0.5C0.584,-0.552 0.56,-0.591 0.523,-0.615C0.486,-0.638 0.44,-0.65 0.384,-0.65C0.317,-0.65 0.261,-0.625 0.216,-0.576C0.171,-0.526 0.148,-0.452 0.148,-0.353C0.148,-0.268 0.167,-0.198 0.204,-0.145C0.242,-0.091 0.303,-0.064 0.387,-0.064C0.452,-0.064 0.506,-0.083 0.548,-0.121C0.591,-0.158 0.612,-0.219 0.613,-0.303L0.389,-0.303L0.389,-0.384L0.704,-0.384L0.704,-0L0.641,-0L0.618,-0.092C0.585,-0.056 0.556,-0.031 0.53,-0.017C0.488,0.007 0.433,0.019 0.368,0.019C0.283,0.019 0.21,-0.008 0.148,-0.063C0.082,-0.132 0.048,-0.227 0.048,-0.348C0.048,-0.468 0.081,-0.563 0.146,-0.634C0.208,-0.702 0.288,-0.736 0.386,-0.736Z" style="fill:rgb(43,47,137);fill-rule:nonzero;"/>
        </g>
    </g>
    <g transform="matrix(1.1,0,0,1,281.51,128.49)">
        <g transform="matrix(59.81,0,0,59.81,0,0)">
            <path d="M0.598,-0.717L0.598,-0.632L0.356,-0.632L0.356,-0L0.258,-0L0.258,-0.632L0.016,-0.632L0.016,-0.717L0.598,-0.717Z" style="fill:rgb(43,47,137);fill-rule:nonzero;"/>
        </g>
        <g transform="matrix(59.81,0,0,59.81,32.1245,0)">
            <path d="M0.444,-0.294L0.335,-0.611L0.22,-0.294L0.444,-0.294ZM0.285,-0.717L0.395,-0.717L0.655,-0L0.548,-0L0.476,-0.215L0.192,-0.215L0.114,-0L0.015,-0L0.285,-0.717Z" style="fill:rgb(43,47,137);fill-rule:nonzero;"/>
        </g>
        <g transform="matrix(59.81,0,0,59.81,72.0173,0)">
            <path d="M0.076,-0.717L0.171,-0.717L0.171,-0.368L0.521,-0.717L0.655,-0.717L0.356,-0.428L0.663,-0L0.537,-0L0.286,-0.36L0.171,-0.25L0.171,-0L0.076,-0L0.076,-0.717Z" style="fill:rgb(43,47,137);fill-rule:nonzero;"/>
        </g>
        <g transform="matrix(59.81,0,0,59.81,111.91,0)">
            <path d="M0.085,-0.717L0.608,-0.717L0.608,-0.629L0.18,-0.629L0.18,-0.412L0.576,-0.412L0.576,-0.329L0.18,-0.329L0.18,-0.085L0.616,-0.085L0.616,-0L0.085,-0L0.085,-0.717Z" style="fill:rgb(43,47,137);fill-rule:nonzero;"/>
        </g>
        <g transform="matrix(59.81,0,0,59.81,151.803,0)">
            <path d="M0.182,-0.717L0.182,-0.274C0.182,-0.222 0.191,-0.179 0.211,-0.144C0.24,-0.092 0.289,-0.066 0.357,-0.066C0.44,-0.066 0.496,-0.094 0.525,-0.15C0.541,-0.181 0.549,-0.222 0.549,-0.274L0.549,-0.717L0.648,-0.717L0.648,-0.314C0.648,-0.226 0.636,-0.158 0.612,-0.111C0.569,-0.024 0.486,0.019 0.365,0.019C0.244,0.019 0.162,-0.024 0.119,-0.111C0.095,-0.158 0.083,-0.226 0.083,-0.314L0.083,-0.717L0.182,-0.717Z" style="fill:rgb(43,47,137);fill-rule:nonzero;"/>
        </g>
        <g transform="matrix(59.81,0,0,59.81,194.996,0)">
            <path d="M0.378,-0.737C0.469,-0.737 0.54,-0.713 0.59,-0.665C0.64,-0.617 0.668,-0.563 0.673,-0.502L0.579,-0.502C0.568,-0.548 0.546,-0.585 0.514,-0.612C0.482,-0.639 0.437,-0.652 0.379,-0.652C0.309,-0.652 0.252,-0.628 0.208,-0.578C0.165,-0.528 0.143,-0.452 0.143,-0.35C0.143,-0.266 0.163,-0.198 0.202,-0.145C0.241,-0.093 0.3,-0.067 0.377,-0.067C0.449,-0.067 0.504,-0.094 0.541,-0.149C0.561,-0.178 0.576,-0.216 0.585,-0.264L0.68,-0.264C0.672,-0.188 0.644,-0.125 0.596,-0.074C0.539,-0.012 0.462,0.019 0.366,0.019C0.282,0.019 0.212,-0.007 0.156,-0.057C0.081,-0.124 0.044,-0.227 0.044,-0.366C0.044,-0.472 0.072,-0.559 0.128,-0.626C0.188,-0.7 0.272,-0.737 0.378,-0.737Z" style="fill:rgb(43,47,137);fill-rule:nonzero;"/>
        </g>
        <g transform="matrix(59.81,0,0,59.81,238.189,0)">
            <path d="M0.079,-0.717L0.177,-0.717L0.177,-0.421L0.55,-0.421L0.55,-0.717L0.648,-0.717L0.648,-0L0.55,-0L0.55,-0.335L0.177,-0.335L0.177,-0L0.079,-0L0.079,-0.717Z" style="fill:rgb(43,47,137);fill-rule:nonzero;"/>
        </g>
        <g transform="matrix(59.81,0,0,59.81,281.382,0)">
            <rect x="0.098" y="-0.717" width="0.098" height="0.717" style="fill:rgb(43,47,137);fill-rule:nonzero;"/>
        </g>
    </g>
</svg>
